<svg xmlns="http://www.w3.org/2000/svg" version="1.1" xmlns:xlink="http://www.w3.org/1999/xlink" xmlns:svgjs="http://svgjs.dev/svgjs" width="2000" height="1500" viewBox="0 0 2000 1500"><rect width="2000" height="1500" fill="#091f5b"></rect><g transform="matrix(0.75,0,0,0.75,249.09090909090912,282.7536437246963)"><svg viewBox="0 0 396 247" data-background-color="#091f5b" preserveAspectRatio="xMidYMid meet" height="1247" width="2000" xmlns="http://www.w3.org/2000/svg" xmlns:xlink="http://www.w3.org/1999/xlink"><g id="tight-bounds" transform="matrix(1,0,0,1,0.2400000000000091,-0.09999999999999432)"><svg viewBox="0 0 395.52 247.2" height="247.2" width="395.52"><g><svg></svg></g><g><svg viewBox="0 0 395.52 247.2" height="247.2" width="395.52"><g transform="matrix(1,0,0,1,75.54432,79.16448210343984)"><svg viewBox="0 0 244.43135999999998 88.87103579312033" height="88.87103579312033" width="244.43135999999998"><g><svg viewBox="0 0 244.43135999999998 88.87103579312033" height="88.87103579312033" width="244.43135999999998"><g><svg viewBox="0 0 244.43136 88.87103579312034" height="88.87103579312033" width="244.43135999999998"><g><svg viewBox="0 0 244.43136 88.87103579312034" height="88.87103579312034" width="244.43136"><g id="textblocktransform"><svg viewBox="0 0 244.43136 88.87103579312034" height="88.87103579312034" width="244.43136" id="textblock"><g><svg viewBox="0 0 244.43136 47.93279013002722" height="47.93279013002722" width="244.43136"><g transform="matrix(1,0,0,1,0,0)"><svg width="244.43136" viewBox="-2.1 -44.9 330.67 64.85" height="47.93279013002722" data-palette-color="#fff9ef"><path d="M21.2 0.5Q18.85 0.5 18.3-2.9L18.3-2.9Q17.85-5.65 17.85-12.75L17.85-12.75 16.6-11.8 10.5-11.8Q9.35-8.85 7.83-6.5 6.3-4.15 4.6-3L4.6-3 4.6-2.9Q5.25-2.6 5.85-2.6L5.85-2.6Q6.6-2.6 7.28-2.85 7.95-3.1 8.1-3.1L8.1-3.1Q8.45-3.1 8.45-2.85L8.45-2.85Q8.45-2.5 7.75-1.65L7.75-1.65Q6.95-0.85 6.05-0.43 5.15 0 4.35 0L4.35 0Q3.7 0 2.5-0.4L2.5-0.4Q1.3-0.8 0.7-0.8L0.7-0.8Q-0.05-0.8-0.83-0.4-1.6 0-1.85 0L-1.85 0Q-2.1 0-2.1-0.25L-2.1-0.25Q-2.1-0.75-1.7-1.43-1.3-2.1-0.75-2.35L-0.75-2.35Q-0.45-2.5-0.18-2.55 0.1-2.6 0.5-2.75L0.5-2.75Q2.45-3.5 3.93-5.48 5.4-7.45 6.45-9.93 7.5-12.4 8.85-16.25L8.85-16.25Q10.4-20.6 11.53-23.33 12.65-26.05 14.2-28.38 15.75-30.7 17.75-32L17.75-32 17.75-32.05Q17.05-32.15 16.7-32.25L16.7-32.25Q16.5-32.3 15.48-32.45 14.45-32.6 12.85-32.6L12.85-32.6Q10.15-32.6 8.33-31.6 6.5-30.6 4.9-28.35L4.9-28.35Q4.4-27.55 4.1-27.55L4.1-27.55Q3.8-27.55 3.8-27.95L3.8-27.95 3.85-28.45Q4.6-31.5 7.28-33.35 9.95-35.2 13.5-35.2L13.5-35.2Q14.95-35.2 17.85-34.7L17.85-34.7Q20.55-34.2 21.7-34.2L21.7-34.2Q23-34.2 24.45-34.7L24.45-34.7 24.45-34.65Q23.1-32.4 22.35-27.63 21.6-22.85 21.6-15.8L21.6-15.8Q21.6-8.55 21.9-6L21.9-6Q22-4.55 22.33-3.83 22.65-3.1 23.45-3.1L23.45-3.1Q23.95-3.1 24.43-3.35 24.9-3.6 25.7-4.1L25.7-4.1Q26.65-4.75 26.9-4.75L26.9-4.75Q27.2-4.75 27.2-4.55L27.2-4.55Q27.2-4.15 26.9-3.6L26.9-3.6Q25.95-1.9 24.33-0.7 22.7 0.5 21.2 0.5L21.2 0.5ZM11.4-14.8L17.9-14.8Q18-19.4 18.55-23.93 19.1-28.45 19.95-31.3L19.95-31.3 19.9-31.3Q17.95-30.4 16.13-26.95 14.3-23.5 11.95-16.5L11.95-16.5 11.4-14.8ZM49.6 0.5Q49 0.5 49-0.1L49-0.1Q49-0.2 49.2-1.2L49.2-1.2Q49.6-3.45 49.6-4.45L49.6-4.45Q49.6-5.55 49.15-6.8L49.15-6.8Q48.3-9.4 46.1-13.2L46.1-13.2 44.15-16.8Q42.15-20.5 40.45-24.35L40.45-24.35 40-25.4 39.9-25.4 36.75-5.5Q36.6-4.15 35.95-3.4L35.95-3.4 35.95-3.35Q37.3-2.9 37.95-2.9L37.95-2.9Q38.65-2.9 39.2-3.18 39.75-3.45 39.9-3.45L39.9-3.45Q40.15-3.45 40.15-3.15L40.15-3.15Q40.15-2.7 39.5-2.05L39.5-2.05Q37.6 0 36.4 0L36.4 0Q35.95 0 34.95-0.4L34.95-0.4Q34.8-0.45 34.22-0.65 33.65-0.85 33.1-0.85L33.1-0.85Q32.3-0.85 31.5-0.43 30.7 0 30.55 0L30.55 0Q30.3 0 30.3-0.45L30.3-0.45Q30.3-0.95 30.62-1.55 30.95-2.15 31.45-2.55L31.45-2.55Q32.6-3.55 33-4 33.4-4.45 33.62-5.13 33.85-5.8 34.1-7.5L34.1-7.5 37.9-31.5 36.3-31.6Q35.25-31.75 34.2-31.75L34.2-31.75Q32.75-31.75 31.75-31.3 30.75-30.85 30.05-29.9L30.05-29.9Q29.95-29.75 29.7-29.38 29.45-29 29.25-29L29.25-29Q29-29 29-29.45L29-29.45Q29-29.95 29.15-30.3L29.15-30.3Q29.65-32.4 31.3-33.55 32.95-34.7 35.35-34.7L35.35-34.7 37-34.65Q38.3-34.55 39.2-34.55L39.2-34.55Q40.1-34.55 41.1-34.65L41.1-34.65 42.15-34.7Q41.9-33.45 41.9-32.6L41.9-32.6Q41.9-30.5 42.92-27.7 43.95-24.9 46.1-20.9L46.1-20.9 48.9-15.6Q50.65-12.45 51.5-10.35L51.5-10.35 51.6-10.35 54.35-28.7Q55.1-33.55 56.52-36.7 57.95-39.85 60.15-41.6L60.15-41.6Q61.75-42.95 63.52-43.58 65.3-44.2 68.25-44.45L68.25-44.45Q68.75-44.5 69.7-44.7L69.7-44.7Q70.15-44.9 70.3-44.9L70.3-44.9Q70.55-44.9 70.55-44.6L70.55-44.6Q70.55-44 69.85-43.25 69.15-42.5 67.45-42.3L67.45-42.3Q67.15-42.25 65.92-42.13 64.7-42 63.67-41.5 62.65-41 61.75-40.05L61.75-40.05Q60.15-38.3 59.2-35.65 58.25-33 57.65-29.4L57.65-29.4 53.75-5.45Q53.6-4.35 52.82-2.95 52.05-1.55 51.12-0.53 50.2 0.5 49.6 0.5L49.6 0.5ZM69.95 12.75Q67.45 12.75 65.57 11.78 63.7 10.8 63.7 9.35L63.7 9.35Q63.7 8.55 64.27 7.58 64.84 6.6 65.59 5.9 66.34 5.2 66.8 5.2L66.8 5.2Q67.09 5.2 67.15 5.65L67.15 5.65Q68.05 8.15 69.27 9.2 70.5 10.25 72.3 10.25L72.3 10.25Q74.05 10.25 75.22 9.25 76.4 8.25 77.17 6.05 77.95 3.85 78.55 0.05L78.55 0.05 79.25-4.05Q75.15 0 70.65 0L70.65 0Q66.75 0 64.47-3.2 62.2-6.4 62.2-12.45L62.2-12.45Q62.2-19.1 64.9-24.3 67.59-29.5 71.77-32.35 75.95-35.2 80.09-35.2L80.09-35.2Q82.7-35.2 84.67-34.18 86.65-33.15 86.65-31.1L86.65-31.1Q86.65-30.65 86.4-29.8 86.15-28.95 85.5-27.9L85.5-27.9Q85.2-27.5 85-27.33 84.8-27.15 84.5-27.15L84.5-27.15Q84.2-27.15 84.05-27.45 83.9-27.75 83.82-28.23 83.75-28.7 83.7-28.9L83.7-28.9Q83.3-30.75 82.05-31.65 80.8-32.55 78.55-32.55L78.55-32.55Q74.5-32.55 71.77-29.48 69.05-26.4 67.72-21.93 66.4-17.45 66.4-13.25L66.4-13.25Q66.4-8.45 68.15-5.95 69.9-3.45 72.95-3.45L72.95-3.45Q74.95-3.45 76.84-4.6 78.75-5.75 80-8.3L80-8.3 81-15.7Q81.09-16.9 82.37-18.13 83.65-19.35 84.75-19.35L84.75-19.35Q85.34-19.35 85.34-19.05L85.34-19.05Q85.34-18.95 84.82-18.23 84.3-17.5 84.09-15.8L84.09-15.8 82.55-3.05Q81.25 4.55 78.02 8.65 74.8 12.75 69.95 12.75L69.95 12.75ZM114.69 0.5Q110.34 0.5 107.99-2.68 105.64-5.85 105.64-12.15L105.64-12.15Q105.64-19.25 108.42-24.48 111.19-29.7 115.37-32.45 119.54-35.2 123.54-35.2L123.54-35.2Q126.14-35.2 128.12-34.18 130.09-33.15 130.09-31.1L130.09-31.1Q130.09-29.65 128.94-27.9L128.94-27.9Q128.64-27.5 128.44-27.33 128.24-27.15 127.94-27.15L127.94-27.15Q127.59-27.15 127.44-27.48 127.29-27.8 127.24-28.25 127.19-28.7 127.14-28.9L127.14-28.9Q126.84-30.6 125.57-31.58 124.29-32.55 121.99-32.55L121.99-32.55Q117.94-32.55 115.22-29.48 112.49-26.4 111.17-21.9 109.84-17.4 109.84-13.15L109.84-13.15Q109.84-8.3 111.64-5.65 113.44-3 116.74-3L116.74-3Q119.44-3 121.82-4.75 124.19-6.5 125.79-9.75L125.79-9.75Q126.09-10.3 126.39-10.3L126.39-10.3Q126.64-10.3 126.64-9.75L126.64-9.75Q126.64-9.45 126.59-9.15 126.54-8.85 126.49-8.7L126.49-8.7Q125.74-6.05 123.99-3.95 122.24-1.85 119.79-0.68 117.34 0.5 114.69 0.5L114.69 0.5ZM134.69 0.5Q132.59 0.5 131.51-1.13 130.44-2.75 130.44-5.65L130.44-5.65Q130.44-9.7 132.39-13.95 134.34-18.2 137.21-21 140.09-23.8 142.69-23.8L142.69-23.8Q144.64-23.8 145.69-22.08 146.74-20.35 146.74-17.55L146.74-17.55Q146.74-13.8 144.91-9.55 143.09-5.3 140.29-2.4 137.49 0.5 134.69 0.5L134.69 0.5ZM137.14-2.8Q138.79-2.8 140.14-4.48 141.49-6.15 142.29-8.93 143.09-11.7 143.09-14.8L143.09-14.8Q143.09-20.5 140.14-20.5L140.14-20.5Q138.29-20.5 136.91-18.5 135.54-16.5 134.81-13.63 134.09-10.75 134.09-8.25L134.09-8.25Q134.09-5.85 134.81-4.33 135.54-2.8 137.14-2.8L137.14-2.8ZM151.44 0.5Q150.99 0.5 150.99 0.2L150.99 0.2Q150.99 0 151.21-0.68 151.44-1.35 151.84-3L151.84-3Q152.84-7.15 154.24-16.85L154.24-16.85Q154.54-18.75 154.54-19.5L154.54-19.5Q154.54-20.15 154.24-20.15L154.24-20.15Q153.39-20.15 151.69-17.15L151.69-17.15Q151.44-16.7 151.24-16.38 151.04-16.05 150.91-15.9 150.79-15.75 150.64-15.75L150.64-15.75Q150.24-15.75 150.24-16.25L150.24-16.25Q150.24-17.25 151.34-19.1 152.44-20.95 153.94-22.38 155.44-23.8 156.64-23.8L156.64-23.8Q157.44-23.8 157.79-23.1 158.14-22.4 158.14-21.35L158.14-21.35Q158.14-19.7 157.34-14.9L157.34-14.9 157.39-14.9Q159.69-18.95 162.44-21.38 165.19-23.8 167.19-23.8L167.19-23.8Q169.29-23.8 169.29-20.85L169.29-20.85Q169.29-19.75 168.84-17.15L168.84-17.15 167.69-11.15Q166.44-4.8 166.44-3.95L166.44-3.95Q166.44-3.6 166.61-3.33 166.79-3.05 167.19-3.05L167.19-3.05Q168.54-3.05 170.29-7.15L170.29-7.15Q170.44-7.7 170.79-7.7L170.79-7.7Q171.09-7.7 171.09-7.1L171.09-7.1Q171.09-6.65 171.04-6.3L171.04-6.3Q170.69-4.5 169.59-2.93 168.49-1.35 167.14-0.43 165.79 0.5 164.69 0.5L164.69 0.5Q163.64 0.5 163.26-0.38 162.89-1.25 162.89-2.3L162.89-2.3Q162.89-4.55 164.14-10.4L164.14-10.4Q165.34-16.1 165.44-18.3L165.44-18.3Q165.49-19.2 165.31-19.58 165.14-19.95 164.49-19.95L164.49-19.95Q162.94-19.95 161.16-17.9 159.39-15.85 157.99-12.88 156.59-9.9 156.14-7.45L156.14-7.45 155.34-3.1Q155.04-1.8 153.74-0.65 152.44 0.5 151.44 0.5L151.44 0.5ZM176.93 0.5Q175.38 0.5 174.28-0.35 173.18-1.2 172.83-2.6L172.83-2.6Q172.73-3 173.16-3.88 173.58-4.75 174.28-5.6L174.28-5.6Q174.68-6.05 174.93-6.05L174.93-6.05Q175.18-6.05 175.33-5.65L175.33-5.65Q176.83-2.15 179.48-2.15L179.48-2.15Q180.83-2.15 181.61-2.98 182.38-3.8 182.38-5.2L182.38-5.2Q182.38-7.1 180.23-10.1L180.23-10.1 179.18-11.6Q177.98-13.3 177.51-14.4 177.03-15.5 177.03-16.75L177.03-16.75Q177.03-18.75 178.11-20.35 179.18-21.95 180.93-22.88 182.68-23.8 184.58-23.8L184.58-23.8Q188.18-23.8 188.18-21.35L188.18-21.35Q188.18-20.45 187.53-19.55L187.53-19.55Q187.18-18.95 186.93-18.95L186.93-18.95Q186.63-18.95 186.38-19.55L186.38-19.55Q185.83-20.5 185.06-20.93 184.28-21.35 183.08-21.35L183.08-21.35Q181.68-21.35 180.83-20.6 179.98-19.85 179.98-18.7L179.98-18.7Q179.98-18.05 180.41-17.23 180.83-16.4 182.03-14.7L182.03-14.7 183.08-13.25Q184.48-11.4 185.03-10.08 185.58-8.75 185.58-7.3L185.58-7.3Q185.58-5.45 184.38-3.63 183.18-1.8 181.18-0.65 179.18 0.5 176.93 0.5L176.93 0.5ZM195.38 0.5Q193.28 0.5 193.28-2.65L193.28-2.65Q193.28-4.2 193.78-7.05L193.78-7.05 195.48-17.35Q195.68-19.15 195.68-19.4L195.68-19.4Q195.68-20.15 195.28-20.15L195.28-20.15Q194.13-20.15 192.58-17.15L192.58-17.15Q192.48-16.95 192.26-16.48 192.03-16 191.88-15.88 191.73-15.75 191.58-15.75L191.58-15.75Q191.48-15.75 191.38-15.93 191.28-16.1 191.28-16.35L191.28-16.35Q191.28-17.35 192.31-19.18 193.33-21 194.83-22.4 196.33-23.8 197.68-23.8L197.68-23.8Q198.48-23.8 198.96-23.13 199.43-22.45 199.43-21.3L199.43-21.3Q199.43-20.55 199.33-20.15L199.33-20.15 196.98-5.4Q196.88-4.7 196.88-4.5L196.88-4.5Q196.88-3.45 197.68-3.45L197.68-3.45Q199.33-3.45 201.26-5.68 203.18-7.9 204.66-11 206.13-14.1 206.58-16.45L206.58-16.45 207.28-20.1Q207.68-21.9 208.91-22.85 210.13-23.8 211.18-23.8L211.18-23.8Q211.58-23.8 211.58-23.55L211.58-23.55Q211.58-23.4 211.38-22.98 211.18-22.55 211.08-21.95L211.08-21.95Q210.38-18.85 208.33-7.55L208.33-7.55 208.03-5.95Q207.68-4.2 207.68-3.8L207.68-3.8Q207.68-3.1 208.13-3.1L208.13-3.1Q208.93-3.1 209.91-4.38 210.88-5.65 211.48-7.15L211.48-7.15Q211.78-7.7 211.98-7.7L211.98-7.7Q212.28-7.7 212.28-7.25L212.28-7.25Q212.28-6.7 212.18-6.3L212.18-6.3Q211.83-4.5 210.78-2.95 209.73-1.4 208.43-0.45 207.13 0.5 206.03 0.5L206.03 0.5Q204.08 0.5 204.18-2.6L204.18-2.6Q204.28-3.95 204.78-6.25L204.78-6.25 205.23-8.7 205.18-8.7Q202.58-4.55 199.88-2.02 197.18 0.5 195.38 0.5L195.38 0.5ZM218.08 0.5Q217.13 0.5 216.7-0.43 216.28-1.35 216.28-2.75L216.28-2.75Q216.28-3.7 216.48-5L216.48-5 219.43-24.7Q220.48-31.5 221.98-35.2 223.48-38.9 225.58-40.55L225.58-40.55Q226.78-41.5 228.08-41.95 229.38-42.4 232.08-43.05L232.08-43.05Q233.33-43.3 233.68-43.45 234.03-43.6 234.13-43.6L234.13-43.6Q234.48-43.6 234.48-43.2L234.48-43.2Q234.48-43 234.25-42.6 234.03-42.2 233.53-41.75L233.53-41.75Q232.98-41.25 232.48-41.08 231.98-40.9 231.28-40.85L231.28-40.85Q228.38-40.55 227.08-39.05L227.08-39.05Q224.63-36.25 223.48-28.7L223.48-28.7 219.83-5.15Q219.78-4.8 219.78-4.3L219.78-4.3Q219.78-3.2 220.43-3.2L220.43-3.2Q221.93-3.2 223.93-7.65L223.93-7.65Q224.13-8.2 224.48-8.2L224.48-8.2Q224.83-8.2 224.83-7.5L224.83-7.5Q224.83-5.85 223.65-3.95 222.48-2.05 220.88-0.78 219.28 0.5 218.08 0.5L218.08 0.5ZM233.93 0.5Q232.43 0.5 231.83-0.53 231.23-1.55 231.23-3.3L231.23-3.3Q231.23-4.6 231.45-6.08 231.68-7.55 231.73-7.85L231.73-7.85 233.78-20.7 228.73-20.7Q228.48-20.7 228.48-20.95L228.48-20.95Q228.48-21.45 229.58-22.38 230.68-23.3 231.18-23.3L231.18-23.3 234.18-23.3 234.68-26.4Q234.88-28.05 236.23-29.35 237.58-30.65 238.93-30.65L238.93-30.65Q239.18-30.65 239.18-30.4L239.18-30.4Q239.18-30.2 238.73-29.23 238.28-28.25 238.08-27.15L238.08-27.15 237.48-23.3 242.38-23.3Q242.68-23.3 242.68-23L242.68-23Q242.68-22.6 241.5-21.65 240.33-20.7 239.98-20.7L239.98-20.7 237.18-20.7 235.13-7.95Q235.08-7.6 234.85-6.25 234.63-4.9 234.63-4.15L234.63-4.15Q234.63-2.5 235.73-2.5L235.73-2.5Q236.53-2.5 237.43-3.28 238.33-4.05 239.03-5.45L239.03-5.45Q239.08-5.55 239.15-5.65 239.23-5.75 239.33-5.75L239.33-5.75Q239.58-5.75 239.58-5.1L239.58-5.1Q239.58-4.1 238.7-2.75 237.83-1.4 236.5-0.45 235.18 0.5 233.93 0.5L233.93 0.5ZM245.77 0.5Q243.22 0.5 243.22-4.35L243.22-4.35Q243.22-9 245.25-13.53 247.27-18.05 250.72-20.93 254.17-23.8 258.17-23.8L258.17-23.8Q260.22-23.8 261.72-23.15L261.72-23.15Q261.07-20.6 260.82-19.4L260.82-19.4 259.77-14Q258.37-7.6 258.07-5.15L258.07-5.15Q258.02-4.8 258.02-4.3L258.02-4.3Q258.02-3.2 258.67-3.2L258.67-3.2Q259.47-3.2 260.17-4.23 260.87-5.25 261.77-7.15L261.77-7.15Q261.82-7.2 261.95-7.45 262.07-7.7 262.27-7.7L262.27-7.7Q262.57-7.7 262.57-7.1L262.57-7.1 262.47-6.3Q262.12-4.65 261.05-3.05 259.97-1.45 258.65-0.48 257.32 0.5 256.27 0.5L256.27 0.5Q254.52 0.5 254.52-2.35L254.52-2.35Q254.52-3.45 254.77-4.6L254.77-4.6 255.62-8.95 255.57-8.95Q253.17-4.75 250.45-2.13 247.72 0.5 245.77 0.5L245.77 0.5ZM248.12-3.6Q249.52-3.6 251.35-5.78 253.17-7.95 254.75-11.1 256.32-14.25 256.92-16.75L256.92-16.75 257.72-19.95Q256.22-20.95 254.57-20.95L254.57-20.95Q252.42-20.95 250.65-18.48 248.87-16 247.87-12.48 246.87-8.95 246.87-6.1L246.87-6.1Q246.87-4.85 247.15-4.23 247.42-3.6 248.12-3.6L248.12-3.6ZM267.17 0.5Q266.72 0.5 266.72 0.2L266.72 0.2Q266.72 0 266.95-0.68 267.17-1.35 267.57-3L267.57-3Q268.57-7.15 269.97-16.85L269.97-16.85Q270.27-18.75 270.27-19.5L270.27-19.5Q270.27-20.15 269.97-20.15L269.97-20.15Q269.12-20.15 267.42-17.15L267.42-17.15Q267.17-16.7 266.97-16.38 266.77-16.05 266.65-15.9 266.52-15.75 266.37-15.75L266.37-15.75Q265.97-15.75 265.97-16.25L265.97-16.25Q265.97-17.25 267.07-19.1 268.17-20.95 269.67-22.38 271.17-23.8 272.37-23.8L272.37-23.8Q273.17-23.8 273.52-23.1 273.87-22.4 273.87-21.35L273.87-21.35Q273.87-19.7 273.07-14.9L273.07-14.9 273.12-14.9Q275.42-18.95 278.17-21.38 280.92-23.8 282.92-23.8L282.92-23.8Q285.02-23.8 285.02-20.85L285.02-20.85Q285.02-19.75 284.57-17.15L284.57-17.15 283.42-11.15Q282.17-4.8 282.17-3.95L282.17-3.95Q282.17-3.6 282.35-3.33 282.52-3.05 282.92-3.05L282.92-3.05Q284.27-3.05 286.02-7.15L286.02-7.15Q286.17-7.7 286.52-7.7L286.52-7.7Q286.82-7.7 286.82-7.1L286.82-7.1Q286.82-6.65 286.77-6.3L286.77-6.3Q286.42-4.5 285.32-2.93 284.22-1.35 282.87-0.43 281.52 0.5 280.42 0.5L280.42 0.5Q279.37 0.5 279-0.38 278.62-1.25 278.62-2.3L278.62-2.3Q278.62-4.55 279.87-10.4L279.87-10.4Q281.07-16.1 281.17-18.3L281.17-18.3Q281.22-19.2 281.05-19.58 280.87-19.95 280.22-19.95L280.22-19.95Q278.67-19.95 276.9-17.9 275.12-15.85 273.72-12.88 272.32-9.9 271.87-7.45L271.87-7.45 271.07-3.1Q270.77-1.8 269.47-0.65 268.17 0.5 267.17 0.5L267.17 0.5ZM294.27 0.5Q292.12 0.5 291.07-1.43 290.02-3.35 290.02-6L290.02-6Q290.02-9.8 291.84-14 293.67-18.2 296.57-21 299.47-23.8 302.57-23.8L302.57-23.8Q303.92-23.8 304.69-23.28 305.47-22.75 305.47-21.9L305.47-21.9Q305.47-21.1 304.87-20.05L304.87-20.05Q304.52-19.45 304.22-19.45L304.22-19.45Q304.02-19.45 303.87-19.7L303.87-19.7Q302.77-21.15 301.12-21.15L301.12-21.15Q299.12-21.15 297.39-19.48 295.67-17.8 294.67-15 293.67-12.2 293.67-8.95L293.67-8.95Q293.67-3.35 296.77-3.35L296.77-3.35Q298.37-3.35 299.52-4.55 300.67-5.75 301.67-7.5L301.67-7.5Q301.77-7.65 301.92-7.9 302.07-8.15 302.19-8.25 302.32-8.35 302.52-8.35L302.52-8.35Q302.67-8.35 302.77-8.18 302.87-8 302.87-7.75L302.87-7.75Q302.87-6.3 301.52-4.33 300.17-2.35 298.14-0.93 296.12 0.5 294.27 0.5L294.27 0.5ZM309.22 19.95Q307.27 19.95 305.92 18.88 304.57 17.8 303.92 16.15 303.27 14.5 303.27 12.75L303.27 12.75Q303.27 11.1 303.87 10.13 304.47 9.15 305.17 8.8 305.87 8.45 306.22 8.45L306.22 8.45Q306.47 8.45 306.47 8.95L306.47 8.95Q306.47 16.75 311.47 16.75L311.47 16.75Q315.02 16.75 317.02 12.5L317.02 12.5Q317.77 10.85 318.42 8.35 319.07 5.85 320.17 0.55L320.17 0.55Q320.62-1.6 320.67-1.9L320.67-1.9 322.17-8.8 322.12-8.8Q320.92-6.3 319.27-4.17 317.62-2.05 316.02-0.78 314.42 0.5 313.42 0.5L313.42 0.5Q312.32 0.5 311.89-1.18 311.47-2.85 311.52-5.25L311.52-5.25 311.92-17.75Q311.97-18.15 311.97-18.85L311.97-18.85Q311.97-19.65 311.79-20.05 311.62-20.45 311.12-20.45L311.12-20.45Q310.47-20.45 309.67-19.6 308.87-18.75 308.27-17.4L308.27-17.4Q307.97-16.55 307.62-16.55L307.62-16.55Q307.22-16.55 307.22-17.15L307.22-17.15Q307.22-18.4 308.12-20 309.02-21.6 310.39-22.7 311.77-23.8 313.02-23.8L313.02-23.8Q314.42-23.8 314.92-22.4 315.42-21 315.42-18.6L315.42-18.6 315.37-17 314.92-8.75 314.87-7.1Q314.87-5.5 315.09-4.8 315.32-4.1 315.92-4.1L315.92-4.1Q317.02-4.1 318.52-6.2 320.02-8.3 321.37-11.35 322.72-14.4 323.37-17.05L323.37-17.05 324.12-20.1Q324.57-21.95 325.84-22.88 327.12-23.8 328.17-23.8L328.17-23.8Q328.57-23.8 328.57-23.55L328.57-23.55Q328.57-23.3 328.39-22.85 328.22-22.4 328.12-22.2L328.12-22.2Q327.72-21.15 327.42-19.93 327.12-18.7 326.82-17L326.82-17 324.17-2.8 323.67 0.05Q323.07 3.55 322.57 5.58 322.07 7.6 321.17 9.58 320.27 11.55 318.62 13.65L318.62 13.65Q316.37 16.65 313.92 18.3 311.47 19.95 309.22 19.95L309.22 19.95Z" opacity="1" transform="matrix(1,0,0,1,0,0)" fill="#fff9ef" class="wordmark-text-0" data-fill-palette-color="primary" id="text-0"></path></svg></g></svg></g><g transform="matrix(1,0,0,1,0,59.24857149276353)"><svg viewBox="0 0 244.43136 29.62246430035682" height="29.62246430035682" width="244.43136"><g transform="matrix(1,0,0,1,0,0)"><svg width="244.43136" viewBox="-2.1 -43.75 525.62 63.7" height="29.62246430035682" data-palette-color="#fff9ef"><path d="M21.2 0.5Q18.85 0.5 18.3-2.9L18.3-2.9Q17.85-5.65 17.85-12.75L17.85-12.75 16.6-11.8 10.5-11.8Q9.35-8.85 7.83-6.5 6.3-4.15 4.6-3L4.6-3 4.6-2.9Q5.25-2.6 5.85-2.6L5.85-2.6Q6.6-2.6 7.28-2.85 7.95-3.1 8.1-3.1L8.1-3.1Q8.45-3.1 8.45-2.85L8.45-2.85Q8.45-2.5 7.75-1.65L7.75-1.65Q6.95-0.85 6.05-0.43 5.15 0 4.35 0L4.35 0Q3.7 0 2.5-0.4L2.5-0.4Q1.3-0.8 0.7-0.8L0.7-0.8Q-0.05-0.8-0.83-0.4-1.6 0-1.85 0L-1.85 0Q-2.1 0-2.1-0.25L-2.1-0.25Q-2.1-0.75-1.7-1.43-1.3-2.1-0.75-2.35L-0.75-2.35Q-0.45-2.5-0.18-2.55 0.1-2.6 0.5-2.75L0.5-2.75Q2.45-3.5 3.93-5.48 5.4-7.45 6.45-9.93 7.5-12.4 8.85-16.25L8.85-16.25Q10.4-20.6 11.53-23.33 12.65-26.05 14.2-28.38 15.75-30.7 17.75-32L17.75-32 17.75-32.05Q17.05-32.15 16.7-32.25L16.7-32.25Q16.5-32.3 15.48-32.45 14.45-32.6 12.85-32.6L12.85-32.6Q10.15-32.6 8.33-31.6 6.5-30.6 4.9-28.35L4.9-28.35Q4.4-27.55 4.1-27.55L4.1-27.55Q3.8-27.55 3.8-27.95L3.8-27.95 3.85-28.45Q4.6-31.5 7.28-33.35 9.95-35.2 13.5-35.2L13.5-35.2Q14.95-35.2 17.85-34.7L17.85-34.7Q20.55-34.2 21.7-34.2L21.7-34.2Q23-34.2 24.45-34.7L24.45-34.7 24.45-34.65Q23.1-32.4 22.35-27.63 21.6-22.85 21.6-15.8L21.6-15.8Q21.6-8.55 21.9-6L21.9-6Q22-4.55 22.33-3.83 22.65-3.1 23.45-3.1L23.45-3.1Q23.95-3.1 24.43-3.35 24.9-3.6 25.7-4.1L25.7-4.1Q26.65-4.75 26.9-4.75L26.9-4.75Q27.2-4.75 27.2-4.55L27.2-4.55Q27.2-4.15 26.9-3.6L26.9-3.6Q25.95-1.9 24.33-0.7 22.7 0.5 21.2 0.5L21.2 0.5ZM11.4-14.8L17.9-14.8Q18-19.4 18.55-23.93 19.1-28.45 19.95-31.3L19.95-31.3 19.9-31.3Q17.95-30.4 16.13-26.95 14.3-23.5 11.95-16.5L11.95-16.5 11.4-14.8ZM38.01 0.5Q35.86 0.5 34.81-1.43 33.76-3.35 33.76-6L33.76-6Q33.76-9.8 35.58-14 37.41-18.2 40.31-21 43.21-23.8 46.31-23.8L46.31-23.8Q47.66-23.8 48.43-23.28 49.21-22.75 49.21-21.9L49.21-21.9Q49.21-21.1 48.61-20.05L48.61-20.05Q48.26-19.45 47.96-19.45L47.96-19.45Q47.76-19.45 47.61-19.7L47.61-19.7Q46.51-21.15 44.86-21.15L44.86-21.15Q42.86-21.15 41.13-19.48 39.41-17.8 38.41-15 37.41-12.2 37.41-8.95L37.41-8.95Q37.41-3.35 40.51-3.35L40.51-3.35Q42.11-3.35 43.26-4.55 44.41-5.75 45.41-7.5L45.41-7.5Q45.51-7.65 45.66-7.9 45.81-8.15 45.93-8.25 46.06-8.35 46.26-8.35L46.26-8.35Q46.41-8.35 46.51-8.18 46.61-8 46.61-7.75L46.61-7.75Q46.61-6.3 45.26-4.33 43.91-2.35 41.88-0.93 39.86 0.5 38.01 0.5L38.01 0.5ZM59.11 0.5Q56.96 0.5 55.91-1.43 54.86-3.35 54.86-6L54.86-6Q54.86-9.8 56.69-14 58.51-18.2 61.41-21 64.31-23.8 67.41-23.8L67.41-23.8Q68.76-23.8 69.54-23.28 70.31-22.75 70.31-21.9L70.31-21.9Q70.31-21.1 69.71-20.05L69.71-20.05Q69.36-19.45 69.06-19.45L69.06-19.45Q68.86-19.45 68.71-19.7L68.71-19.7Q67.61-21.15 65.96-21.15L65.96-21.15Q63.96-21.15 62.24-19.48 60.51-17.8 59.51-15 58.51-12.2 58.51-8.95L58.51-8.95Q58.51-3.35 61.61-3.35L61.61-3.35Q63.21-3.35 64.36-4.55 65.51-5.75 66.51-7.5L66.51-7.5Q66.61-7.65 66.76-7.9 66.91-8.15 67.04-8.25 67.16-8.35 67.36-8.35L67.36-8.35Q67.51-8.35 67.61-8.18 67.71-8 67.71-7.75L67.71-7.75Q67.71-6.3 66.36-4.33 65.01-2.35 62.99-0.93 60.96 0.5 59.11 0.5L59.11 0.5ZM80.22 0.5Q78.12 0.5 77.04-1.13 75.97-2.75 75.97-5.65L75.97-5.65Q75.97-9.7 77.92-13.95 79.87-18.2 82.74-21 85.62-23.8 88.22-23.8L88.22-23.8Q90.17-23.8 91.22-22.08 92.27-20.35 92.27-17.55L92.27-17.55Q92.27-13.8 90.44-9.55 88.62-5.3 85.82-2.4 83.02 0.5 80.22 0.5L80.22 0.5ZM82.67-2.8Q84.32-2.8 85.67-4.48 87.02-6.15 87.82-8.93 88.62-11.7 88.62-14.8L88.62-14.8Q88.62-20.5 85.67-20.5L85.67-20.5Q83.82-20.5 82.44-18.5 81.07-16.5 80.34-13.63 79.62-10.75 79.62-8.25L79.62-8.25Q79.62-5.85 80.34-4.33 81.07-2.8 82.67-2.8L82.67-2.8ZM104.32 0.5Q102.22 0.5 102.22-2.65L102.22-2.65Q102.22-4.2 102.72-7.05L102.72-7.05 104.42-17.35Q104.62-19.15 104.62-19.4L104.62-19.4Q104.62-20.15 104.22-20.15L104.22-20.15Q103.07-20.15 101.52-17.15L101.52-17.15Q101.42-16.95 101.2-16.48 100.97-16 100.82-15.88 100.67-15.75 100.52-15.75L100.52-15.75Q100.42-15.75 100.32-15.93 100.22-16.1 100.22-16.35L100.22-16.35Q100.22-17.35 101.25-19.18 102.27-21 103.77-22.4 105.27-23.8 106.62-23.8L106.62-23.8Q107.42-23.8 107.9-23.13 108.37-22.45 108.37-21.3L108.37-21.3Q108.37-20.55 108.27-20.15L108.27-20.15 105.92-5.4Q105.82-4.7 105.82-4.5L105.82-4.5Q105.82-3.45 106.62-3.45L106.62-3.45Q108.27-3.45 110.2-5.68 112.12-7.9 113.6-11 115.07-14.1 115.52-16.45L115.52-16.45 116.22-20.1Q116.62-21.9 117.85-22.85 119.07-23.8 120.12-23.8L120.12-23.8Q120.52-23.8 120.52-23.55L120.52-23.55Q120.52-23.4 120.32-22.98 120.12-22.55 120.02-21.95L120.02-21.95Q119.32-18.85 117.27-7.55L117.27-7.55 116.97-5.95Q116.62-4.2 116.62-3.8L116.62-3.8Q116.62-3.1 117.07-3.1L117.07-3.1Q117.87-3.1 118.85-4.38 119.82-5.65 120.42-7.15L120.42-7.15Q120.72-7.7 120.92-7.7L120.92-7.7Q121.22-7.7 121.22-7.25L121.22-7.25Q121.22-6.7 121.12-6.3L121.12-6.3Q120.77-4.5 119.72-2.95 118.67-1.4 117.37-0.45 116.07 0.5 114.97 0.5L114.97 0.5Q113.02 0.5 113.12-2.6L113.12-2.6Q113.22-3.95 113.72-6.25L113.72-6.25 114.17-8.7 114.12-8.7Q111.52-4.55 108.82-2.02 106.12 0.5 104.32 0.5L104.32 0.5ZM130.43 0.5Q129.98 0.5 129.98 0.2L129.98 0.2Q129.98 0 130.2-0.68 130.43-1.35 130.83-3L130.83-3Q131.83-7.15 133.23-16.85L133.23-16.85Q133.53-18.75 133.53-19.5L133.53-19.5Q133.53-20.15 133.23-20.15L133.23-20.15Q132.38-20.15 130.68-17.15L130.68-17.15Q130.43-16.7 130.23-16.38 130.03-16.05 129.9-15.9 129.78-15.75 129.63-15.75L129.63-15.75Q129.23-15.75 129.23-16.25L129.23-16.25Q129.23-17.25 130.33-19.1 131.43-20.95 132.93-22.38 134.43-23.8 135.63-23.8L135.63-23.8Q136.43-23.8 136.78-23.1 137.13-22.4 137.13-21.35L137.13-21.35Q137.13-19.7 136.33-14.9L136.33-14.9 136.38-14.9Q138.68-18.95 141.43-21.38 144.18-23.8 146.18-23.8L146.18-23.8Q148.28-23.8 148.28-20.85L148.28-20.85Q148.28-19.75 147.83-17.15L147.83-17.15 146.68-11.15Q145.43-4.8 145.43-3.95L145.43-3.95Q145.43-3.6 145.6-3.33 145.78-3.05 146.18-3.05L146.18-3.05Q147.53-3.05 149.28-7.15L149.28-7.15Q149.43-7.7 149.78-7.7L149.78-7.7Q150.08-7.7 150.08-7.1L150.08-7.1Q150.08-6.65 150.03-6.3L150.03-6.3Q149.68-4.5 148.58-2.93 147.48-1.35 146.13-0.43 144.78 0.5 143.68 0.5L143.68 0.5Q142.63 0.5 142.25-0.38 141.88-1.25 141.88-2.3L141.88-2.3Q141.88-4.55 143.13-10.4L143.13-10.4Q144.33-16.1 144.43-18.3L144.43-18.3Q144.48-19.2 144.3-19.58 144.13-19.95 143.48-19.95L143.48-19.95Q141.93-19.95 140.15-17.9 138.38-15.85 136.98-12.88 135.58-9.9 135.13-7.45L135.13-7.45 134.33-3.1Q134.03-1.8 132.73-0.65 131.43 0.5 130.43 0.5L130.43 0.5ZM162.69 0.5Q161.19 0.5 160.59-0.53 159.99-1.55 159.99-3.3L159.99-3.3Q159.99-4.6 160.21-6.08 160.44-7.55 160.49-7.85L160.49-7.85 162.54-20.7 157.49-20.7Q157.24-20.7 157.24-20.95L157.24-20.95Q157.24-21.45 158.34-22.38 159.44-23.3 159.94-23.3L159.94-23.3 162.94-23.3 163.44-26.4Q163.64-28.05 164.99-29.35 166.34-30.65 167.69-30.65L167.69-30.65Q167.94-30.65 167.94-30.4L167.94-30.4Q167.94-30.2 167.49-29.23 167.04-28.25 166.84-27.15L166.84-27.15 166.24-23.3 171.14-23.3Q171.44-23.3 171.44-23L171.44-23Q171.44-22.6 170.26-21.65 169.09-20.7 168.74-20.7L168.74-20.7 165.94-20.7 163.89-7.95Q163.84-7.6 163.61-6.25 163.39-4.9 163.39-4.15L163.39-4.15Q163.39-2.5 164.49-2.5L164.49-2.5Q165.29-2.5 166.19-3.28 167.09-4.05 167.79-5.45L167.79-5.45Q167.84-5.55 167.91-5.65 167.99-5.75 168.09-5.75L168.09-5.75Q168.34-5.75 168.34-5.1L168.34-5.1Q168.34-4.1 167.46-2.75 166.59-1.4 165.26-0.45 163.94 0.5 162.69 0.5L162.69 0.5ZM190.75 19.95Q190.05 19.95 189.57 19.78 189.1 19.6 188.55 19.05L188.55 19.05Q187.6 18.1 187.6 17.5L187.6 17.5Q187.6 17.25 188 17.25L188 17.25Q188.55 17.25 189.2 17.4L189.2 17.4Q191.2 17.75 192.2 17.75L192.2 17.75Q194.35 17.75 195.72 16.55 197.1 15.35 197.97 12.78 198.85 10.2 199.5 5.75L199.5 5.75 203.4-20.35 200.75-20.35Q199.35-20.35 198.65-20.03 197.95-19.7 197.85-19.7L197.85-19.7Q197.55-19.7 197.55-20.1L197.55-20.1Q197.55-20.55 197.85-21L197.85-21Q198.45-22 199.45-22.65 200.45-23.3 201.75-23.3L201.75-23.3 203.85-23.3 203.9-23.85Q204.9-29.1 206.17-32.83 207.45-36.55 209.6-39.25L209.6-39.25Q211.4-41.5 213.05-42.25 214.7-43 216.75-43.35L216.75-43.35Q217.85-43.55 218.25-43.65 218.65-43.75 218.8-43.75L218.8-43.75Q219.05-43.75 219.05-43.5L219.05-43.5Q219.05-42.9 218.05-41.95L218.05-41.95Q217.55-41.4 217.12-41.25 216.7-41.1 215.95-41.1L215.95-41.1Q214.5-41.05 213.4-40.43 212.3-39.8 211.35-38.5L211.35-38.5Q209.9-36.4 209.05-33.02 208.2-29.65 207.4-24.85L207.4-24.85 207.15-23.3 209.85-23.3Q211.2-23.3 211.92-23.63 212.65-23.95 212.8-23.95L212.8-23.95Q213.1-23.95 213.1-23.55L213.1-23.55Q213.1-23.25 212.8-22.65L212.8-22.65Q211.4-20.35 208.9-20.35L208.9-20.35 206.75-20.35 203.35 2.75Q200.75 19.95 190.75 19.95L190.75 19.95ZM221 0.5Q218.9 0.5 217.83-1.13 216.75-2.75 216.75-5.65L216.75-5.65Q216.75-9.7 218.7-13.95 220.65-18.2 223.53-21 226.4-23.8 229-23.8L229-23.8Q230.95-23.8 232-22.08 233.05-20.35 233.05-17.55L233.05-17.55Q233.05-13.8 231.23-9.55 229.4-5.3 226.6-2.4 223.8 0.5 221 0.5L221 0.5ZM223.45-2.8Q225.1-2.8 226.45-4.48 227.8-6.15 228.6-8.93 229.4-11.7 229.4-14.8L229.4-14.8Q229.4-20.5 226.45-20.5L226.45-20.5Q224.6-20.5 223.23-18.5 221.85-16.5 221.13-13.63 220.4-10.75 220.4-8.25L220.4-8.25Q220.4-5.85 221.13-4.33 221.85-2.8 223.45-2.8L223.45-2.8ZM242.01 0.5Q241.81 0.5 241.68 0.43 241.56 0.35 241.56 0.25L241.56 0.25Q241.56 0.1 241.86-0.4 242.16-0.9 242.31-1.8L242.31-1.8Q242.51-2.85 242.66-3.73 242.81-4.6 242.96-5.35L242.96-5.35Q244.21-12.2 244.63-14.93 245.06-17.65 245.01-18.9L245.01-18.9Q245.01-19.55 244.91-19.85 244.81-20.15 244.46-20.15L244.46-20.15Q244.01-20.15 243.31-19.4 242.61-18.65 242.01-17.65L242.01-17.65Q241.76-17.2 241.56-16.88 241.36-16.55 241.23-16.4 241.11-16.25 240.96-16.25L240.96-16.25Q240.76-16.25 240.66-16.4 240.56-16.55 240.56-16.8L240.56-16.8Q240.56-17.75 241.63-19.45 242.71-21.15 244.18-22.48 245.66-23.8 246.81-23.8L246.81-23.8Q247.76-23.8 248.13-23.05 248.51-22.3 248.51-20.7L248.51-20.7Q248.51-18.5 247.56-14.75L247.56-14.75 247.66-14.75Q252.41-23.8 256.46-23.8L256.46-23.8Q257.51-23.8 258.08-23.23 258.66-22.65 258.66-21.6L258.66-21.6Q258.66-20.5 258.18-19.35 257.71-18.2 257.03-17.45 256.36-16.7 255.81-16.7L255.81-16.7Q255.46-16.7 255.56-17.15L255.56-17.15Q255.71-17.85 255.71-18.25L255.71-18.25Q255.71-19.45 254.41-19.45L254.41-19.45Q252.86-19.45 251.31-17.65 249.76-15.85 248.58-13.25 247.41-10.65 246.96-8.5L246.96-8.5Q246.36-6.2 246.21-3.7L246.21-3.7Q246.11-2.75 245.33-1.78 244.56-0.8 243.56-0.15 242.56 0.5 242.01 0.5L242.01 0.5ZM283.27 0Q282.97 0 282.97-0.35L282.97-0.35Q282.97-1.4 284.12-2.4L284.12-2.4Q284.97-3.2 285.4-3.83 285.82-4.45 286.15-5.53 286.47-6.6 286.82-8.75L286.82-8.75 290.52-31.55 290.32-31.55Q287.92-31.55 286.7-31.05 285.47-30.55 284.82-30.03 284.17-29.5 284.02-29.5L284.02-29.5Q283.72-29.5 283.72-29.95L283.72-29.95Q283.72-30.4 283.87-30.7L283.87-30.7Q284.42-32.45 286.57-33.58 288.72-34.7 292.47-34.7L292.47-34.7Q294.22-34.7 296.82-34.45L296.82-34.45Q300.82-34.2 301.62-34.2L301.62-34.2Q304.52-34.2 305.9-34.7 307.27-35.2 307.47-35.2L307.47-35.2Q307.67-35.2 307.75-35.13 307.82-35.05 307.82-34.85L307.82-34.85Q307.82-34.25 307.05-33.4 306.27-32.55 304.67-31.9 303.07-31.25 300.72-31.25L300.72-31.25Q299.82-31.25 299-31.3 298.17-31.35 297.52-31.4L297.52-31.4Q295.22-31.6 294.27-31.6L294.27-31.6 292.32-19.55 301.72-19.55Q302.12-19.55 302.12-19.2L302.12-19.2Q302.12-18.85 301.5-18.03 300.87-17.2 299.95-16.53 299.02-15.85 298.17-15.85L298.17-15.85Q297.92-15.85 296.92-16.05L296.92-16.05Q295.12-16.5 293.57-16.5L293.57-16.5 291.92-16.5 290.22-6.7Q290.12-5.85 289.8-5.05 289.47-4.25 289.12-3.85L289.12-3.85 289.12-3.8Q290.17-3.5 291.67-3.33 293.17-3.15 294.47-3.15L294.47-3.15Q298.92-3.15 302.37-5.35L302.37-5.35Q302.52-5.4 302.7-5.5 302.87-5.6 303.02-5.6L303.02-5.6Q303.37-5.6 303.37-5.1L303.37-5.1Q303.37-4.05 302.02-2.85 300.67-1.65 298.57-0.83 296.47 0 294.27 0L294.27 0Q292.77 0 289.67-0.5L289.67-0.5Q287.37-0.85 286.47-0.85L286.47-0.85Q285.42-0.85 284.47-0.43 283.52 0 283.27 0L283.27 0ZM317.58 0.5Q317.13 0.5 316.95 0.28 316.78 0.05 316.7-0.7 316.63-1.45 316.63-2.5L316.63-2.5Q316.63-6.05 316.28-10.6L316.28-10.6Q315.83-15.75 315.2-17.85 314.58-19.95 313.63-19.95L313.63-19.95Q312.98-19.95 312.68-19.35 312.38-18.75 311.88-17.15L311.88-17.15Q311.68-16.3 311.28-16.3L311.28-16.3Q310.88-16.3 310.88-17.05L310.88-17.05Q310.88-18.3 311.45-19.9 312.03-21.5 313.05-22.65 314.08-23.8 315.38-23.8L315.38-23.8Q317.68-23.8 318.6-20.55 319.53-17.3 319.93-12.05L319.93-12.05Q320.18-8.75 320.25-7.4 320.33-6.05 320.38-5.7L320.38-5.7Q320.43-4.85 320.83-4.85L320.83-4.85Q321.78-4.85 323.28-6.98 324.78-9.1 325.9-11.93 327.03-14.75 327.03-16.75L327.03-16.75Q327.03-17.65 326.8-18.2 326.58-18.75 326.18-19.3 325.78-19.85 325.78-20.15L325.78-20.15Q325.78-20.9 326.98-22.35 328.18-23.8 328.83-23.8L328.83-23.8Q329.33-23.8 329.78-22.93 330.23-22.05 330.23-20.6L330.23-20.6Q330.23-17.3 327.98-12.23 325.73-7.15 322.73-3.33 319.73 0.5 317.58 0.5L317.58 0.5ZM341.48 0.5Q339.23 0.5 337.91-1.23 336.58-2.95 336.58-6L336.58-6Q336.58-9.7 338.36-13.93 340.13-18.15 342.93-20.98 345.73-23.8 348.58-23.8L348.58-23.8Q351.18-23.8 351.18-20.65L351.18-20.65Q351.18-18.1 349.68-15.65 348.18-13.2 345.66-11.33 343.13-9.45 340.13-8.45L340.13-8.45Q340.13-5.75 341.01-4.55 341.88-3.35 343.58-3.35L343.58-3.35Q345.38-3.35 346.88-4.5 348.38-5.65 349.43-7.65L349.43-7.65Q349.58-7.95 349.73-8.15 349.88-8.35 350.13-8.35L350.13-8.35Q350.53-8.35 350.53-7.75L350.53-7.75Q350.53-6.4 349.18-4.4 347.83-2.4 345.73-0.95 343.63 0.5 341.48 0.5L341.48 0.5ZM341.73-11.1Q343.03-11.1 344.51-12.03 345.98-12.95 346.98-14.55 347.98-16.15 347.98-18.15L347.98-18.15Q347.98-20.5 346.33-20.5L346.33-20.5Q344.98-20.5 343.76-19.05 342.53-17.6 341.71-15.45 340.88-13.3 340.58-11.3L340.58-11.3Q340.88-11.1 341.73-11.1L341.73-11.1ZM359.99 0.5Q359.79 0.5 359.66 0.43 359.54 0.35 359.54 0.25L359.54 0.25Q359.54 0.1 359.84-0.4 360.14-0.9 360.29-1.8L360.29-1.8Q360.49-2.85 360.64-3.73 360.79-4.6 360.94-5.35L360.94-5.35Q362.19-12.2 362.61-14.93 363.04-17.65 362.99-18.9L362.99-18.9Q362.99-19.55 362.89-19.85 362.79-20.15 362.44-20.15L362.44-20.15Q361.99-20.15 361.29-19.4 360.59-18.65 359.99-17.65L359.99-17.65Q359.74-17.2 359.54-16.88 359.34-16.55 359.21-16.4 359.09-16.25 358.94-16.25L358.94-16.25Q358.74-16.25 358.64-16.4 358.54-16.55 358.54-16.8L358.54-16.8Q358.54-17.75 359.61-19.45 360.69-21.15 362.16-22.48 363.64-23.8 364.79-23.8L364.79-23.8Q365.74-23.8 366.11-23.05 366.49-22.3 366.49-20.7L366.49-20.7Q366.49-18.5 365.54-14.75L365.54-14.75 365.64-14.75Q370.39-23.8 374.44-23.8L374.44-23.8Q375.49-23.8 376.06-23.23 376.64-22.65 376.64-21.6L376.64-21.6Q376.64-20.5 376.16-19.35 375.69-18.2 375.01-17.45 374.34-16.7 373.79-16.7L373.79-16.7Q373.44-16.7 373.54-17.15L373.54-17.15Q373.69-17.85 373.69-18.25L373.69-18.25Q373.69-19.45 372.39-19.45L372.39-19.45Q370.84-19.45 369.29-17.65 367.74-15.85 366.56-13.25 365.39-10.65 364.94-8.5L364.94-8.5Q364.34-6.2 364.19-3.7L364.19-3.7Q364.09-2.75 363.31-1.78 362.54-0.8 361.54-0.15 360.54 0.5 359.99 0.5L359.99 0.5ZM383.94 19.95Q381.99 19.95 380.64 18.88 379.29 17.8 378.64 16.15 377.99 14.5 377.99 12.75L377.99 12.75Q377.99 11.1 378.59 10.13 379.19 9.15 379.89 8.8 380.59 8.45 380.94 8.45L380.94 8.45Q381.19 8.45 381.19 8.95L381.19 8.95Q381.19 16.75 386.19 16.75L386.19 16.75Q389.74 16.75 391.74 12.5L391.74 12.5Q392.49 10.85 393.14 8.35 393.79 5.85 394.89 0.55L394.89 0.55Q395.34-1.6 395.39-1.9L395.39-1.9 396.89-8.8 396.84-8.8Q395.64-6.3 393.99-4.17 392.34-2.05 390.74-0.78 389.14 0.5 388.14 0.5L388.14 0.5Q387.04 0.5 386.62-1.18 386.19-2.85 386.24-5.25L386.24-5.25 386.64-17.75Q386.69-18.15 386.69-18.85L386.69-18.85Q386.69-19.65 386.52-20.05 386.34-20.45 385.84-20.45L385.84-20.45Q385.19-20.45 384.39-19.6 383.59-18.75 382.99-17.4L382.99-17.4Q382.69-16.55 382.34-16.55L382.34-16.55Q381.94-16.55 381.94-17.15L381.94-17.15Q381.94-18.4 382.84-20 383.74-21.6 385.12-22.7 386.49-23.8 387.74-23.8L387.74-23.8Q389.14-23.8 389.64-22.4 390.14-21 390.14-18.6L390.14-18.6 390.09-17 389.64-8.75 389.59-7.1Q389.59-5.5 389.82-4.8 390.04-4.1 390.64-4.1L390.64-4.1Q391.74-4.1 393.24-6.2 394.74-8.3 396.09-11.35 397.44-14.4 398.09-17.05L398.09-17.05 398.84-20.1Q399.29-21.95 400.57-22.88 401.84-23.8 402.89-23.8L402.89-23.8Q403.29-23.8 403.29-23.55L403.29-23.55Q403.29-23.3 403.12-22.85 402.94-22.4 402.84-22.2L402.84-22.2Q402.44-21.15 402.14-19.93 401.84-18.7 401.54-17L401.54-17 398.89-2.8 398.39 0.05Q397.79 3.55 397.29 5.58 396.79 7.6 395.89 9.58 394.99 11.55 393.34 13.65L393.34 13.65Q391.09 16.65 388.64 18.3 386.19 19.95 383.94 19.95L383.94 19.95ZM439.91 0.5Q435.56 0.5 433.21-2.68 430.86-5.85 430.86-12.15L430.86-12.15Q430.86-19.25 433.63-24.48 436.41-29.7 440.58-32.45 444.76-35.2 448.76-35.2L448.76-35.2Q451.36-35.2 453.33-34.18 455.31-33.15 455.31-31.1L455.31-31.1Q455.31-29.65 454.16-27.9L454.16-27.9Q453.86-27.5 453.66-27.33 453.46-27.15 453.16-27.15L453.16-27.15Q452.81-27.15 452.66-27.48 452.51-27.8 452.46-28.25 452.41-28.7 452.36-28.9L452.36-28.9Q452.06-30.6 450.78-31.58 449.51-32.55 447.21-32.55L447.21-32.55Q443.16-32.55 440.43-29.48 437.71-26.4 436.38-21.9 435.06-17.4 435.06-13.15L435.06-13.15Q435.06-8.3 436.86-5.65 438.66-3 441.96-3L441.96-3Q444.66-3 447.03-4.75 449.41-6.5 451.01-9.75L451.01-9.75Q451.31-10.3 451.61-10.3L451.61-10.3Q451.86-10.3 451.86-9.75L451.86-9.75Q451.86-9.45 451.81-9.15 451.76-8.85 451.71-8.7L451.71-8.7Q450.96-6.05 449.21-3.95 447.46-1.85 445.01-0.68 442.56 0.5 439.91 0.5L439.91 0.5ZM464.36 0.5Q462.26 0.5 461.19-1.13 460.11-2.75 460.11-5.65L460.11-5.65Q460.11-9.7 462.06-13.95 464.01-18.2 466.89-21 469.76-23.8 472.36-23.8L472.36-23.8Q474.31-23.8 475.36-22.08 476.41-20.35 476.41-17.55L476.41-17.55Q476.41-13.8 474.59-9.55 472.76-5.3 469.96-2.4 467.16 0.5 464.36 0.5L464.36 0.5ZM466.81-2.8Q468.46-2.8 469.81-4.48 471.16-6.15 471.96-8.93 472.76-11.7 472.76-14.8L472.76-14.8Q472.76-20.5 469.81-20.5L469.81-20.5Q467.96-20.5 466.59-18.5 465.21-16.5 464.49-13.63 463.76-10.75 463.76-8.25L463.76-8.25Q463.76-5.85 464.49-4.33 465.21-2.8 466.81-2.8L466.81-2.8ZM490.82-26.65Q490.32-26.65 490.37-27.15L490.37-27.15 490.97-30.65Q491.22-32.1 492.04-32.88 492.87-33.65 494.12-33.65L494.12-33.65 494.32-33.65Q494.62-33.65 494.69-33.55 494.77-33.45 494.72-33.15L494.72-33.15 494.17-29.7Q493.97-28.3 493.12-27.48 492.27-26.65 491.02-26.65L491.02-26.65 490.82-26.65ZM487.87 0.5Q486.27 0.5 486.27-1.8L486.27-1.8Q486.27-2.95 486.57-4.45L486.57-4.45 488.97-17.8Q489.17-19.1 489.17-19.4L489.17-19.4Q489.17-20.15 488.72-20.15L488.72-20.15Q488.12-20.15 487.27-19.2 486.42-18.25 485.42-16.2L485.42-16.2Q485.22-15.6 484.92-15.6L484.92-15.6Q484.62-15.6 484.62-16.1L484.62-16.1Q484.62-17.3 485.69-19.18 486.77-21.05 488.34-22.43 489.92-23.8 491.27-23.8L491.27-23.8Q492.82-23.8 492.82-21.6L492.82-21.6Q492.82-20.55 492.52-18.85L492.52-18.85 489.92-4.4 489.82-3.75Q489.82-3.2 490.27-3.2L490.27-3.2Q490.87-3.2 491.72-4.17 492.57-5.15 493.57-7.15L493.57-7.15Q493.82-7.7 494.07-7.7L494.07-7.7Q494.37-7.7 494.37-7.05L494.37-7.05Q494.37-5.9 493.29-4.08 492.22-2.25 490.67-0.88 489.12 0.5 487.87 0.5L487.87 0.5ZM503.87 0.5Q503.42 0.5 503.42 0.2L503.42 0.2Q503.42 0 503.65-0.68 503.87-1.35 504.27-3L504.27-3Q505.27-7.15 506.67-16.85L506.67-16.85Q506.97-18.75 506.97-19.5L506.97-19.5Q506.97-20.15 506.67-20.15L506.67-20.15Q505.82-20.15 504.12-17.15L504.12-17.15Q503.87-16.7 503.67-16.38 503.47-16.05 503.35-15.9 503.22-15.75 503.07-15.75L503.07-15.75Q502.67-15.75 502.67-16.25L502.67-16.25Q502.67-17.25 503.77-19.1 504.87-20.95 506.37-22.38 507.87-23.8 509.07-23.8L509.07-23.8Q509.87-23.8 510.22-23.1 510.57-22.4 510.57-21.35L510.57-21.35Q510.57-19.7 509.77-14.9L509.77-14.9 509.82-14.9Q512.12-18.95 514.87-21.38 517.62-23.8 519.62-23.8L519.62-23.8Q521.72-23.8 521.72-20.85L521.72-20.85Q521.72-19.75 521.27-17.15L521.27-17.15 520.12-11.15Q518.87-4.8 518.87-3.95L518.87-3.95Q518.87-3.6 519.05-3.33 519.22-3.05 519.62-3.05L519.62-3.05Q520.97-3.05 522.72-7.15L522.72-7.15Q522.87-7.7 523.22-7.7L523.22-7.7Q523.52-7.7 523.52-7.1L523.52-7.1Q523.52-6.65 523.47-6.3L523.47-6.3Q523.12-4.5 522.02-2.93 520.92-1.35 519.57-0.43 518.22 0.5 517.12 0.5L517.12 0.5Q516.07 0.5 515.7-0.38 515.32-1.25 515.32-2.3L515.32-2.3Q515.32-4.55 516.57-10.4L516.57-10.4Q517.77-16.1 517.87-18.3L517.87-18.3Q517.92-19.2 517.75-19.58 517.57-19.95 516.92-19.95L516.92-19.95Q515.37-19.95 513.6-17.9 511.82-15.85 510.42-12.88 509.02-9.9 508.57-7.45L508.57-7.45 507.77-3.1Q507.47-1.8 506.17-0.65 504.87 0.5 503.87 0.5L503.87 0.5Z" opacity="1" transform="matrix(1,0,0,1,0,0)" fill="#fff9ef" class="slogan-text-1" data-fill-palette-color="secondary" id="text-1"></path></svg></g></svg></g></svg></g></svg></g></svg></g></svg></g></svg></g><g><path d="M0 123.6c0-68.262 55.338-123.6 123.6-123.6 50.431 0 93.807 30.203 113.028 73.507l-2.37 0c-19.078-42.077-61.45-71.345-110.658-71.346-67.069 0-121.439 54.37-121.439 121.439 0 67.069 54.37 121.439 121.439 121.439 49.208 0 91.58-29.268 110.658-71.346h2.37c-19.221 43.304-62.597 73.507-113.028 73.507-68.262 0-123.6-55.338-123.6-123.6z" fill="#fff9ef" stroke="transparent" data-fill-palette-color="tertiary"></path></g></svg></g><defs></defs></svg><rect width="395.52" height="247.2" fill="none" stroke="none" visibility="hidden"></rect></g></svg></g></svg>